<?xml version="1.0" standalone="no"?>
<!DOCTYPE svg PUBLIC "-//W3C//DTD SVG 20010904//EN"
 "http://www.w3.org/TR/2001/REC-SVG-20010904/DTD/svg10.dtd">
<svg version="1.0" xmlns="http://www.w3.org/2000/svg"
 width="300.000000pt" height="300.000000pt" viewBox="0 0 300.000000 300.000000"
 preserveAspectRatio="xMidYMid meet">

<g transform="translate(0.000000,300.000000) scale(0.100000,-0.100000)"
fill="#000000" stroke="none">
<path d="M1430 2204 c-47 -20 -130 -53 -185 -74 -134 -52 -345 -137 -371 -151
-31 -16 -44 -51 -44 -115 0 -51 3 -59 36 -92 29 -29 35 -41 32 -71 -2 -20 -1
-35 2 -35 3 1 24 7 47 14 l42 13 39 -42 c21 -22 41 -41 45 -41 4 0 7 14 7 31
0 21 -4 28 -12 23 -10 -6 -10 -4 -1 6 10 10 20 11 40 4 28 -9 28 -11 33 -114
6 -122 16 -144 88 -183 146 -79 425 -82 571 -7 87 44 101 72 101 197 l0 98
108 39 c59 21 119 45 135 53 l27 14 0 109 c0 105 -1 111 -22 120 -13 5 -88 35
-168 66 -80 31 -207 80 -282 110 -75 29 -147 56 -160 58 -13 3 -58 -9 -108
-30z m-437 -270 c305 -119 427 -167 467 -183 l45 -17 3 -92 c1 -51 -1 -92 -6
-92 -10 0 -413 147 -418 153 -2 1 -4 37 -6 79 -2 59 -6 78 -18 82 -8 3 -46 16
-85 30 -38 14 -71 26 -72 26 -2 0 -3 -31 -3 -69 0 -76 -10 -93 -34 -59 -22 31
-22 135 1 160 9 10 20 18 25 18 4 0 50 -16 101 -36z m1155 -70 l-3 -88 -130
-48 c-71 -27 -152 -57 -180 -67 -93 -36 -297 -111 -301 -111 -2 0 -4 40 -4 89
l0 90 83 31 c207 80 300 117 407 160 63 26 119 44 123 40 4 -4 7 -47 5 -96z"/>
<path d="M475 1086 c-72 -32 -109 -119 -86 -204 21 -81 78 -122 168 -122 61 0
95 22 91 58 -2 21 -8 26 -23 24 -11 -2 -40 -5 -63 -5 -58 -3 -82 25 -82 93 0
81 46 111 132 86 21 -6 27 -4 32 12 4 10 4 26 1 34 -14 36 -111 50 -170 24z"/>
<path d="M770 1083 c-88 -46 -115 -167 -57 -254 33 -50 80 -71 149 -66 95 6
155 70 157 167 1 45 -35 117 -71 144 -39 28 -132 33 -178 9z m125 -78 c36 -35
36 -115 0 -150 -50 -51 -115 -12 -115 70 0 54 13 83 43 95 35 14 46 12 72 -15z"/>
<path d="M1103 1088 c-16 -8 -23 -20 -23 -42 -4 -293 -9 -278 98 -284 125 -6
195 54 195 168 0 68 -28 122 -76 147 -39 20 -163 27 -194 11z m126 -69 c39
-14 51 -35 51 -92 0 -58 -24 -88 -70 -90 l-35 -2 -3 98 c-3 106 -3 107 57 86z"/>
<path d="M1747 1092 c-16 -3 -17 -17 -15 -160 l3 -157 105 0 105 0 0 30 c0 30
0 30 -62 33 l-62 3 -3 121 c-3 120 -3 122 -28 128 -14 3 -33 4 -43 2z"/>
<path d="M2105 1091 c-28 -6 -32 -13 -77 -148 -27 -78 -45 -149 -42 -157 8
-21 52 -32 73 -19 9 6 18 23 21 39 5 27 9 29 52 32 45 3 48 2 62 -31 8 -19 19
-38 25 -42 20 -12 71 5 71 23 0 9 -18 78 -40 152 -22 74 -40 135 -40 136 0 3
-63 24 -69 23 -3 -1 -19 -4 -36 -8z m54 -135 c6 -25 11 -46 11 -48 0 -10 -54
0 -58 10 -5 16 17 82 28 82 4 0 13 -20 19 -44z"/>
<path d="M2373 1089 l-33 -10 0 -137 c0 -75 4 -142 8 -149 21 -33 145 -45 206
-19 67 28 86 96 41 142 l-25 25 20 26 c27 35 25 57 -8 94 -26 29 -34 32 -103
35 -41 2 -89 -1 -106 -7z m136 -73 c16 -19 3 -45 -25 -52 -37 -9 -54 2 -54 36
0 27 3 30 34 30 18 0 39 -6 45 -14z m-5 -122 c9 -3 16 -16 16 -29 0 -25 -17
-35 -61 -35 -27 0 -29 3 -29 35 0 32 2 35 29 35 16 0 36 -3 45 -6z"/>
<path d="M1446 1074 c-13 -12 -16 -40 -16 -140 0 -69 5 -134 10 -145 10 -17
22 -19 115 -19 62 0 106 4 110 11 4 5 4 21 1 35 -6 23 -11 24 -76 24 l-70 0 0
30 c0 29 1 29 63 32 62 3 62 3 62 33 0 30 0 30 -62 33 -59 3 -63 4 -63 27 0
24 3 25 64 25 63 0 84 10 80 38 -1 6 -2 17 -3 22 0 6 -42 10 -100 10 -77 0
-103 -4 -115 -16z"/>
</g>
</svg>
